<?xml version="1.0" encoding="utf-8"?>
<!-- Generator: Adobe Illustrator 19.2.1, SVG Export Plug-In . SVG Version: 6.00 Build 0)  -->
<svg version="1.1" id="Layer_1" xmlns="http://www.w3.org/2000/svg" xmlns:xlink="http://www.w3.org/1999/xlink" x="0px" y="0px"
	 viewBox="0 0 379.3 174.5" style="enable-background:new 0 0 379.3 174.5;" xml:space="preserve">
<style type="text/css">
	.st0{fill:#4C4277;}
	.st1{fill:#8A99C4;}
	.st2{fill:#CCD5E2;}
</style>
<ellipse class="st0" cx="102.7" cy="95.9" rx="38.6" ry="40"/>
<g>
	<path class="st0" d="M157.5,173.7c0-21.3-16.6-37.9-37.9-37.9h-33c-21.3,0-38.5,16.6-38.5,37.9v0.8h109.5V173.7z"/>
</g>
<ellipse class="st1" cx="208.2" cy="28.3" rx="16.1" ry="16.7"/>
<g>
	<path class="st1" d="M231.1,60.7c0-8.9-6.9-15.6-15.9-15.6h-13.8c-8.9,0-16,6.7-16,15.6v0.6h45.7V60.7L231.1,60.7z"/>
</g>
<ellipse class="st1" cx="208.2" cy="84.6" rx="16.1" ry="16.7"/>
<g>
	<path class="st1" d="M231.1,117.1c0-8.9-6.9-14.9-15.9-14.9h-13.8c-8.9,0-16,6.1-16,14.9v0.5h45.7V117.1L231.1,117.1z"/>
</g>
<ellipse class="st1" cx="208.2" cy="142.8" rx="16.1" ry="16.7"/>
<g>
	<path class="st1" d="M231.1,175.3c0-8.9-6.9-14.9-15.9-14.9h-13.8c-8.9,0-16,6.1-16,14.9v0.5h45.7V175.3L231.1,175.3z"/>
</g>
<ellipse class="st2" cx="272.2" cy="65.2" rx="12.1" ry="12.5"/>
<g>
	<path class="st2" d="M288.8,89.4c0-6.6-4.6-10.7-11.2-10.7h-10.3c-6.6,0-11.2,4.1-11.2,10.7l0,0H288.8L288.8,89.4z"/>
</g>
<ellipse class="st2" cx="272.2" cy="23.6" rx="12.1" ry="12.5"/>
<g>
	<path class="st2" d="M288.8,48c0-6.6-4.6-11.2-11.2-11.2h-10.3c-6.6,0-11.2,4.4-11.2,11.2v0.3h32.8L288.8,48L288.8,48z"/>
</g>
<ellipse class="st2" cx="272.2" cy="107.3" rx="12.1" ry="12.5"/>
<g>
	<path class="st2" d="M288.8,131.6c0-6.6-4.6-12.4-11.2-12.4h-10.3c-6.6,0-11.2,5.7-11.2,12.4v0.5h32.8L288.8,131.6L288.8,131.6z"/>
</g>
<ellipse class="st2" cx="272.2" cy="151.2" rx="12.1" ry="12.5"/>
<g>
	<path class="st2" d="M288.8,175.5c0-6.6-4.6-11.2-11.2-11.2h-10.3c-6.6,0-11.2,4.4-11.2,11.2v0.3h32.8L288.8,175.5L288.8,175.5z"/>
</g>
<ellipse class="st2" cx="329.7" cy="65.2" rx="12.1" ry="12.5"/>
<g>
	<path class="st2" d="M346.2,89.4c0-6.6-4.6-10.7-11.2-10.7h-10.3c-6.6,0-11.2,4.1-11.2,10.7l0,0H346.2L346.2,89.4z"/>
</g>
<ellipse class="st2" cx="329.7" cy="23.6" rx="12.1" ry="12.5"/>
<g>
	<path class="st2" d="M346.2,48c0-6.6-4.6-11.2-11.2-11.2h-10.3c-6.6,0-11.2,4.4-11.2,11.2v0.3h32.8L346.2,48L346.2,48z"/>
</g>
<ellipse class="st2" cx="329.7" cy="107.3" rx="12.1" ry="12.5"/>
<g>
	<path class="st2" d="M346.2,131.6c0-6.6-4.6-12.4-11.2-12.4h-10.3c-6.6,0-11.2,5.7-11.2,12.4v0.5h32.8L346.2,131.6L346.2,131.6z"/>
</g>
<ellipse class="st2" cx="329.7" cy="151.2" rx="12.1" ry="12.5"/>
<g>
	<path class="st2" d="M346.2,175.5c0-6.6-4.6-11.2-11.2-11.2h-10.3c-6.6,0-11.2,4.4-11.2,11.2v0.3h32.8L346.2,175.5L346.2,175.5z"/>
</g>
</svg>
