<?xml version="1.0" encoding="utf-8"?>
<!-- Generator: Adobe Illustrator 19.2.1, SVG Export Plug-In . SVG Version: 6.00 Build 0)  -->
<svg version="1.1" id="Layer_1" xmlns="http://www.w3.org/2000/svg" xmlns:xlink="http://www.w3.org/1999/xlink" x="0px" y="0px"
	 viewBox="0 0 598.4 411.5" style="enable-background:new 0 0 598.4 411.5;" xml:space="preserve">
<style type="text/css">
	.st0{fill:#125E91;}
	.st1{fill:#EDF2F9;}
	.st2{fill:#216F9B;}
	.st3{fill:none;stroke:#216F9B;stroke-width:4;stroke-linecap:round;stroke-miterlimit:10;}
</style>
<ellipse class="st0" cx="391.8" cy="189.4" rx="76.5" ry="79.3"/>
<g>
	<path class="st0" d="M515.8,353c0-47.6-38.4-87.7-86.3-87.7h-73.8c-47.6,0-88.1,40.2-88.1,87.7v58.5h248.2V353z"/>
</g>
<g>
	<path class="st1" d="M422.4,208.4c-4.2,12.2-18.8,21.1-36.8,21.1s-32.6-9-36.8-21.1c-1.4,3.2-2.1,6.2-2.1,9.7
		c0,15.9,17.3,28.9,38.9,28.9c21.7,0,38.9-12.7,38.9-28.9C424.9,214.6,423.8,211.4,422.4,208.4z"/>
</g>
<ellipse class="st0" cx="384.7" cy="209.3" rx="42.8" ry="20.1"/>
<path class="st2" d="M533.4,366.1c0,18.8-87.6,34.2-195.4,34.2s-195.4-15.3-195.4-34.2c0-18.8,72.9-34.2,180.7-34.2
	C382.4,331.7,533.4,347,533.4,366.1z"/>
<rect x="142.7" y="366.1" class="st2" width="390.7" height="45.4"/>
<path class="st3" d="M300.3,255.6c0,0-52,25.9-52,62.7s0,50,0,50"/>
<path class="st2" d="M306.7,258.6h-8.5c-4.4,0-7.9-3.5-7.9-7.9l0,0c0-4.4,3.5-7.9,7.9-7.9h8.5c4.4,0,7.9,3.5,7.9,7.9l0,0
	C314.6,254.9,310.9,258.6,306.7,258.6z"/>
</svg>
