<?xml version="1.0" encoding="utf-8"?>
<!-- Generator: Adobe Illustrator 19.2.1, SVG Export Plug-In . SVG Version: 6.00 Build 0)  -->
<svg version="1.1" id="Layer_1" xmlns="http://www.w3.org/2000/svg" xmlns:xlink="http://www.w3.org/1999/xlink" x="0px" y="0px"
	 viewBox="0 0 300 250" style="enable-background:new 0 0 300 250;" xml:space="preserve">
<style type="text/css">
	.st0{fill:#B3BCE0;}
	.st1{fill:#FFFFFF;}
	.st2{fill:#6585B7;}
	.st3{fill:#324F83;}
</style>
<rect x="3.7" y="20.5" class="st0" width="258.8" height="166"/>
<g>
	<path class="st1" d="M28,79h10.9l5.5,24c0.9,4.4,1.6,8.8,2.4,13.3h0.4c0.9-4.5,1.8-8.9,2.9-13.3l6-24h9.9l6.2,24
		c1.1,4.4,2,8.8,3.1,13.3h0.4c0.9-4.5,1.6-8.8,2.4-13.3l5.5-24h10.2l-11.8,46.2H69.3l-5.4-21.5c-1-4.3-1.8-8.6-2.8-13.5h-0.4
		c-0.9,4.9-1.6,9.2-2.8,13.6l-5.3,21.4H40.2L28,79z"/>
	<path class="st1" d="M121.5,77.8c11.6,0,22,8.8,22,24.3c0,15.4-10.4,24.2-22,24.2c-11.4,0-21.9-8.8-21.9-24.2
		C99.5,86.6,109.9,77.8,121.5,77.8z M121.5,117.5c6.8,0,10.9-6.2,10.9-15.4c0-9.3-4.2-15.5-10.9-15.5c-6.8,0-10.8,6.2-10.8,15.5
		C110.5,111.3,114.7,117.5,121.5,117.5z"/>
	<path class="st1" d="M149,79H160l5.5,24c0.9,4.4,1.6,8.8,2.4,13.3h0.4c0.9-4.5,1.8-8.9,2.9-13.3l6-24h9.9l6.2,24
		c1.1,4.4,2,8.8,3.1,13.3h0.4c0.9-4.5,1.6-8.8,2.4-13.3l5.5-24H215l-11.8,46.2h-13l-5.4-21.5c-1-4.3-1.8-8.6-2.8-13.5h-0.4
		c-0.9,4.9-1.6,9.2-2.8,13.6l-5.3,21.5h-12.3L149,79z"/>
	<path class="st1" d="M232.1,111.5c3.9,0,6.9,3.1,6.9,7.3s-3,7.3-6.9,7.3c-3.9,0-7-3.1-7-7.3S228.1,111.5,232.1,111.5z M226.9,72.8
		l-0.3-10.7h10.9l-0.4,10.7l-1.5,32.1h-7.3L226.9,72.8z"/>
</g>
<circle class="st2" cx="174.9" cy="123.6" r="35.6"/>
<g>
	<path class="st2" d="M220.5,175c0-9.5-5.6-16.8-14.2-16.8H147c-8.6,0-16,7.4-16,16.8v75h89.6V175z"/>
</g>
<path class="st3" d="M278.5,225.3c0,1-0.8,1.7-1.7,1.7H205c-1,0-1.7-0.8-1.7-1.7v-48.9c0-1,0.8-1.7,1.7-1.7h71.8
	c1,0,1.7,0.8,1.7,1.7V225.3z"/>
<rect x="174.9" y="225.3" class="st3" width="103.6" height="7.2"/>
<rect x="174.9" y="232.5" class="st0" width="103.6" height="17.5"/>
</svg>
